M48
; DRILL file {KiCad (5.1.5-0-10_14)} date 2020 June 28, Sunday 10:11:40
; FORMAT={-:-/ absolute / inch / decimal}
; #@! TF.CreationDate,2020-06-28T10:11:40+02:00
; #@! TF.GenerationSoftware,Kicad,Pcbnew,(5.1.5-0-10_14)
; #@! TF.FileFunction,Plated,1,2,PTH
FMAT,2
INCH
T1C0.0118
T2C0.0157
T3C0.0315
T4C0.0390
T5C0.0394
%
G90
G05
T1
X2.7559Y-1.8898
X2.7559Y-2.0472
X2.7559Y-2.2047
X2.7559Y-3.3465
X2.7559Y-3.5039
X2.7559Y-3.6614
X2.7559Y-3.8189
X2.7559Y-3.937
X2.7561Y-2.3611
X2.7571Y-3.2613
X2.7953Y-2.4409
X2.7953Y-2.5197
X2.7953Y-2.5984
X2.7953Y-2.6772
X2.7953Y-2.7559
X2.7953Y-2.8346
X2.7953Y-2.9134
X2.7953Y-2.9921
X2.7953Y-3.0709
X2.7953Y-3.4252
X2.7953Y-3.5827
X2.7953Y-3.7402
X2.7953Y-3.8976
X2.8331Y-3.2644
X2.8346Y-1.9685
X2.8346Y-2.126
X2.8346Y-2.2835
X2.8346Y-2.4803
X2.8346Y-2.5591
X2.8346Y-2.6378
X2.8346Y-2.7165
X2.8346Y-2.7953
X2.8346Y-2.874
X2.8346Y-2.9528
X2.8346Y-3.0315
X2.8346Y-3.1102
X2.874Y-1.8898
X2.874Y-2.0472
X2.874Y-2.2047
X2.874Y-2.3622
X2.874Y-2.4409
X2.874Y-2.5197
X2.874Y-2.5984
X2.874Y-2.6772
X2.874Y-2.7559
X2.874Y-2.8346
X2.874Y-2.9134
X2.874Y-2.9921
X2.874Y-3.0709
X2.874Y-3.3465
X2.874Y-3.5039
X2.874Y-3.6614
X2.874Y-3.8189
X2.874Y-3.937
X2.9134Y-2.4803
X2.9134Y-2.5591
X2.9134Y-2.6378
X2.9134Y-2.7165
X2.9134Y-2.7953
X2.9134Y-2.874
X2.9134Y-2.9528
X2.9134Y-3.0315
X2.9134Y-3.1102
X2.9134Y-3.2677
X2.9134Y-3.4252
X2.9134Y-3.5827
X2.9134Y-3.7402
X2.9134Y-3.8976
X2.9528Y-1.9685
X2.9528Y-2.126
X2.9528Y-2.2835
X2.9528Y-2.4409
X2.9528Y-2.5197
X2.9528Y-2.5984
X2.9528Y-2.6772
X2.9528Y-2.7559
X2.9528Y-2.8346
X2.9528Y-2.9134
X2.9528Y-2.9921
X2.9528Y-3.0709
X2.9921Y-1.8898
X2.9921Y-2.0472
X2.9921Y-2.2047
X2.9921Y-2.3622
X2.9921Y-2.4803
X2.9921Y-2.5591
X2.9921Y-2.6378
X2.9921Y-2.7165
X2.9921Y-2.7953
X2.9921Y-2.874
X2.9921Y-2.9528
X2.9921Y-3.0315
X2.9921Y-3.1102
X2.9921Y-3.2677
X2.9921Y-3.3465
X2.9921Y-3.5039
X2.9921Y-3.6614
X2.9921Y-3.8189
X2.9921Y-3.937
X3.0315Y-2.4409
X3.0315Y-2.5197
X3.0315Y-2.5984
X3.0315Y-2.6772
X3.0315Y-2.7559
X3.0315Y-2.8346
X3.0315Y-2.9134
X3.0315Y-2.9921
X3.0315Y-3.0709
X3.0315Y-3.4252
X3.0315Y-3.5827
X3.0315Y-3.7402
X3.0315Y-3.8976
X3.0606Y-3.1
X3.0709Y-1.9685
X3.0709Y-2.126
X3.0709Y-2.2835
X3.0709Y-2.4803
X3.0709Y-2.5591
X3.0709Y-2.6378
X3.0709Y-2.7165
X3.0709Y-2.7953
X3.0709Y-2.874
X3.0709Y-2.9528
X3.0709Y-3.0315
X3.0714Y-3.2669
X3.1102Y-1.8898
X3.1102Y-2.0472
X3.1102Y-2.2047
X3.1102Y-2.3622
X3.1102Y-2.4409
X3.1102Y-2.5197
X3.1102Y-2.5984
X3.1102Y-2.6772
X3.1102Y-2.7559
X3.1102Y-2.8346
X3.1102Y-2.9134
X3.1102Y-3.5039
X3.1102Y-3.6614
X3.1102Y-3.8189
X3.1102Y-3.937
X3.189Y-1.8898
X3.189Y-2.0079
X3.189Y-2.1654
X3.189Y-2.3228
X3.189Y-2.4803
X3.189Y-2.5591
X3.189Y-2.6378
X3.189Y-2.7165
X3.189Y-2.874
X3.189Y-2.9528
X3.1891Y-2.7953
X3.2283Y-2.4409
X3.2283Y-2.5197
X3.2283Y-2.5984
X3.2283Y-2.6772
X3.2283Y-2.7559
X3.2283Y-2.8346
X3.2283Y-2.9134
X3.2283Y-2.9921
X3.2283Y-3.0709
X3.2283Y-3.4252
X3.2283Y-3.5827
X3.2283Y-3.7402
X3.2283Y-3.8976
X3.2677Y-1.9291
X3.2677Y-2.0866
X3.2677Y-2.2441
X3.2677Y-2.4803
X3.2677Y-2.5591
X3.2677Y-2.6378
X3.2677Y-2.7165
X3.2677Y-2.7953
X3.2677Y-2.874
X3.2677Y-2.9528
X3.2677Y-3.0315
X3.3071Y-3.5039
X3.3071Y-3.6614
X3.3071Y-3.8189
X3.3268Y-2.0079
X3.3268Y-2.1654
X3.3268Y-2.5197
X3.3268Y-2.5984
X3.3268Y-2.6772
X3.3268Y-2.7559
X3.3268Y-2.8346
X3.3268Y-2.9921
X3.3268Y-3.0709
X3.3318Y-2.9084
X3.3465Y-2.3228
X3.3614Y-2.6378
X3.3614Y-2.7165
X3.3614Y-2.7953
X3.3639Y-2.8756
X3.3661Y-3.0315
X3.3661Y-3.1102
X3.375Y-1.88
X3.385Y-2.85
X3.3858Y-1.9291
X3.3858Y-3.4252
X3.3858Y-3.5827
X3.3858Y-3.7402
X3.3858Y-3.8976
X3.3875Y-2.0395
X3.4055Y-3.0709
X3.4055Y-3.2283
X3.415Y-2.83
X3.425Y-2.99
X3.427Y-2.2517
X3.44Y-2.795
X3.4415Y-2.0155
X3.4449Y-3.0315
X3.4449Y-3.1102
X3.445Y-3.86
X3.4646Y-2.3228
X3.4646Y-3.5039
X3.4646Y-3.6614
X3.4646Y-3.8189
X3.4716Y-1.956
X3.4732Y-2.7168
X3.4794Y-2.67
X3.4843Y-3.0709
X3.5Y-2.095
X3.51Y-2.041
X3.5236Y-3.0709
X3.529Y-1.942
X3.5433Y-3.189
X3.5433Y-3.5827
X3.5433Y-3.7402
X3.5433Y-3.8976
X3.545Y-2.625
X3.551Y-3.4175
X3.5827Y-2.2441
X3.5827Y-3.1496
X3.62Y-2.145
X3.622Y-3.6614
X3.622Y-3.8189
X3.6297Y-3.4963
X3.63Y-2.51
X3.631Y-1.9034
X3.6417Y-3.1496
X3.6614Y-2.2835
X3.663Y-1.9034
X3.7008Y-3.4252
X3.7008Y-3.5827
X3.7008Y-3.7402
X3.7008Y-3.8976
X3.71Y-3.55
X3.7402Y-2.2047
X3.7595Y-3.239
X3.765Y-3.0
X3.7795Y-3.5039
X3.7795Y-3.6614
X3.7795Y-3.8189
X3.7895Y-2.0295
X3.79Y-1.9378
X3.79Y-2.965
X3.8189Y-2.126
X3.8189Y-2.2835
X3.8583Y-3.4252
X3.8583Y-3.5854
X3.8583Y-3.7402
X3.8583Y-3.8976
X3.8895Y-3.2075
X3.8976Y-2.2047
X3.937Y-3.5039
X3.937Y-3.6614
X3.945Y-3.86
X3.95Y-2.82
X3.9567Y-1.8918
X3.975Y-2.085
X3.9764Y-2.126
X3.9764Y-2.2835
X4.005Y-3.115
X4.0157Y-3.4252
X4.0157Y-3.5854
X4.0157Y-3.7402
X4.0551Y-2.2047
X4.0551Y-3.6614
X4.07Y-2.5686
X4.0748Y-1.8918
X4.09Y-2.04
X4.09Y-2.115
X4.09Y-3.055
X4.1Y-2.595
X4.1339Y-2.2835
X4.1535Y-1.8918
X4.1535Y-2.6575
X4.1732Y-2.2047
X4.1732Y-3.4252
X4.1732Y-3.5854
X4.1732Y-3.7402
X4.1732Y-3.8976
X4.2126Y-3.0118
X4.215Y-3.12
X4.2323Y-2.2835
X4.252Y-2.4606
X4.252Y-3.2087
X4.252Y-3.5039
X4.252Y-3.6614
X4.252Y-3.8189
X4.2717Y-1.8918
X4.2913Y-2.2047
X4.311Y-3.0118
X4.311Y-3.1299
X4.3307Y-1.9488
X4.3307Y-2.6772
X4.3307Y-3.2087
X4.3307Y-3.4252
X4.3307Y-3.5854
X4.3307Y-3.7402
X4.3307Y-3.8976
X4.3504Y-2.2835
X4.3504Y-2.4803
X4.3701Y-1.8918
X4.3898Y-2.2047
X4.395Y-2.78
X4.4094Y-3.5039
X4.4094Y-3.6614
X4.4094Y-3.8189
X4.415Y-2.84
X4.42Y-2.735
X4.4488Y-1.8898
X4.4488Y-2.4803
X4.4488Y-3.189
X4.4685Y-2.2835
X4.4882Y-3.4252
X4.4882Y-3.5854
X4.4882Y-3.7402
X4.5079Y-2.2047
X4.5079Y-3.0709
X4.5468Y-2.4798
X4.5472Y-1.9291
X4.5669Y-3.6614
X4.5669Y-3.8189
X4.575Y-2.735
X4.575Y-2.94
X4.5866Y-3.0118
X4.5866Y-3.1693
X4.5878Y-2.8556
X4.6063Y-1.8898
X4.6063Y-1.9882
X4.6063Y-2.2835
X4.6063Y-2.5197
X4.6457Y-2.2047
X4.6457Y-3.0709
X4.6457Y-3.4252
X4.6654Y-1.9291
X4.6654Y-2.0472
X4.7274Y-2.0469
X4.7363Y-1.8848
X4.7638Y-2.3622
X4.7638Y-2.5197
X4.7638Y-2.9528
X4.7638Y-3.1102
X4.7638Y-3.2677
X4.7638Y-3.4252
X4.7638Y-3.5854
X4.7638Y-3.7402
X4.7638Y-3.8976
X4.8031Y-1.9685
X4.805Y-3.42
X4.8425Y-2.4803
X4.8425Y-2.7953
X4.8425Y-3.189
X4.8425Y-3.3465
X4.8425Y-3.6614
X4.8425Y-3.8189
X4.8428Y-2.6378
X4.8819Y-1.8898
X4.8819Y-2.0472
X4.8819Y-2.2047
X4.9213Y-2.3622
X4.9213Y-3.1102
X4.9213Y-3.2677
X4.9213Y-3.5827
X4.9213Y-3.7402
X4.9213Y-3.8976
X4.95Y-2.72
X4.9606Y-1.9291
X4.9606Y-2.4803
X5.0Y-2.2047
X5.0Y-3.5039
X5.0Y-3.6614
X5.0Y-3.8189
X5.034Y-2.958
X5.0394Y-1.8898
X5.0394Y-2.0472
X5.0787Y-2.2835
X5.0787Y-2.3622
X5.0787Y-2.5197
X5.0787Y-2.7165
X5.0787Y-3.4252
X5.0787Y-3.5827
X5.0787Y-3.7402
X5.0787Y-3.8976
X5.1181Y-3.1102
X5.145Y-2.15
X5.1575Y-1.9657
X5.1575Y-3.2283
X5.1575Y-3.3858
X5.1575Y-3.5039
X5.1575Y-3.6614
X5.1575Y-3.8189
X5.161Y-2.958
X5.1969Y-1.8898
X5.1969Y-2.0472
X5.1969Y-2.2047
X5.205Y-2.675
X5.2362Y-3.1102
X5.2362Y-3.2677
X5.2362Y-3.4252
X5.2362Y-3.7402
X5.2362Y-3.8976
X5.2756Y-1.9291
X5.2756Y-2.2835
X5.295Y-2.645
X5.305Y-2.55
X5.315Y-3.189
X5.315Y-3.3465
X5.315Y-3.5039
X5.315Y-3.6614
X5.3543Y-1.8898
X5.3543Y-2.0472
X5.3543Y-2.2047
X5.3937Y-2.7953
X5.3937Y-3.1102
X5.3937Y-3.2677
X5.3937Y-3.4252
X5.3937Y-3.5827
X5.3937Y-3.7402
X5.3937Y-3.8976
X5.4331Y-1.9685
X5.4331Y-2.9528
X5.466Y-2.262
X5.4724Y-2.874
X5.4724Y-3.0315
X5.4724Y-3.189
X5.4724Y-3.3465
X5.4724Y-3.5039
X5.4724Y-3.6614
X5.4724Y-3.8189
X5.5118Y-1.8898
X5.5118Y-2.0472
X5.5512Y-2.7953
X5.5512Y-2.9528
X5.5512Y-3.1102
X5.5512Y-3.2677
X5.5512Y-3.4252
X5.5512Y-3.5827
X5.5512Y-3.7402
T2
X2.3Y-2.4
X3.15Y-2.45
X3.15Y-3.95
X4.45Y-2.4
X3.15Y-3.85
X4.7Y-2.75
X3.85Y-2.4
X4.7Y-2.65
X3.15Y-3.05
X3.15Y-3.35
X3.75Y-3.3
X3.15Y-2.95
X4.7Y-3.25
X4.05Y-2.4
X4.7Y-2.35
X3.35Y-3.3
X3.15Y-2.35
X3.15Y-2.75
X4.7Y-3.85
X3.75Y-2.4
X3.15Y-2.05
X4.65Y-2.4
X3.65Y-3.3
X3.15Y-3.45
X3.25Y-3.3
X3.1Y-2.4
X4.05Y-3.3
X3.15Y-3.65
X3.55Y-3.3
X4.7Y-2.25
X3.15Y-2.25
X2.7Y-3.3
X3.45Y-2.4
X3.15Y-2.15
X4.7Y-3.95
X3.15Y-3.15
X4.7Y-3.45
X4.25Y-2.4
X2.4Y-2.4
X3.15Y-2.55
X3.2Y-2.4
X2.8Y-3.3
X3.45Y-3.3
X3.35Y-2.4
X4.65Y-3.3
X4.25Y-3.3
X3.15Y-3.55
X2.7Y-2.4
X4.55Y-3.3
X3.0Y-3.3
X4.35Y-2.4
X4.7Y-3.75
X3.55Y-2.4
X3.15Y-2.85
X4.7Y-3.65
X4.55Y-2.4
X4.35Y-3.3
X3.15Y-1.95
X2.6Y-2.4
X3.2Y-3.3
X3.0Y-2.4
X3.95Y-3.3
X2.5Y-3.3
X3.95Y-2.4
X3.85Y-3.3
X2.2917Y-2.4957
X2.2917Y-2.5744
X2.2917Y-2.6531
X2.2917Y-2.7319
X2.2917Y-2.8106
X2.2917Y-2.8894
X2.2917Y-2.9681
X2.2917Y-3.0469
X2.2917Y-3.1256
X2.2917Y-3.2043
X2.4885Y-2.4957
X2.4885Y-2.5744
X2.4885Y-2.6531
X2.4885Y-2.7319
X2.4885Y-2.8106
X2.4885Y-2.8894
X2.4885Y-2.9681
X2.4885Y-3.0469
X2.4885Y-3.1256
X3.65Y-2.4
X4.7Y-3.35
X4.15Y-2.4
X4.7Y-3.15
X4.7Y-2.45
X2.5Y-2.4
X2.6Y-3.3
X2.3Y-3.3
X3.15Y-2.65
X2.4Y-3.3
X4.7Y-1.95
X3.15Y-3.25
X3.25Y-2.4
X4.15Y-3.3
X3.15Y-3.75
X4.7Y-2.95
X2.8Y-2.4
X4.45Y-3.3
X4.7Y-2.55
X4.7Y-2.85
X4.7Y-2.05
T3
X5.35Y-2.9306
X5.35Y-3.0094
T4
X4.46Y-2.69
X4.5Y-2.99
X4.54Y-2.69
T5
X3.15Y-2.2
X2.45Y-2.4
X2.95Y-3.3
X4.7Y-3.6
X4.7Y-1.9
X4.7Y-3.4
X3.15Y-3.7
X2.55Y-2.4
X2.85Y-2.4
X2.45Y-3.3
X4.7Y-3.0
X3.15Y-2.1
X3.15Y-3.8
X2.55Y-3.3
X3.15Y-2.7
X4.7Y-2.1
X2.35Y-2.4
X3.15Y-2.0
X2.75Y-3.3
X2.75Y-2.4
X3.15Y-3.9
X3.15Y-2.6
X4.7Y-2.0
X3.3Y-2.4
X3.4Y-2.4
X3.5Y-2.4
X3.6Y-2.4
X3.7Y-2.4
X3.8Y-2.4
X3.9Y-2.4
X4.0Y-2.4
X4.1Y-2.4
X4.2Y-2.4
X4.3Y-2.4
X4.4Y-2.4
X4.5Y-2.4
X4.6Y-2.4
X4.7Y-3.3
X3.15Y-1.9
X3.15Y-2.9
X4.7Y-2.7
X2.65Y-3.3
X3.3Y-3.3
X3.4Y-3.3
X3.5Y-3.3
X3.6Y-3.3
X3.7Y-3.3
X3.8Y-3.3
X3.9Y-3.3
X4.0Y-3.3
X4.1Y-3.3
X4.2Y-3.3
X4.3Y-3.3
X4.4Y-3.3
X4.5Y-3.3
X4.6Y-3.3
X4.7Y-3.5
X3.15Y-2.5
X4.7Y-2.6
X2.85Y-3.3
X3.15Y-3.4
X3.15Y-2.8
X4.7Y-2.5
X2.95Y-2.4
X2.35Y-3.3
X3.15Y-2.4
X3.15Y-3.5
X4.7Y-2.2
X4.7Y-2.9
X4.7Y-3.9
X3.15Y-3.0
X3.15Y-3.1
X3.15Y-3.2
X3.15Y-3.3
X2.65Y-2.4
X3.05Y-3.3
X4.7Y-3.7
X3.05Y-2.4
X3.15Y-2.3
X4.7Y-2.3
X3.15Y-3.6
X4.7Y-2.8
X4.7Y-3.2
X4.7Y-2.4
X4.7Y-3.1
X4.7Y-3.8
T0
M30
